<svg xmlns="http://www.w3.org/2000/svg" version="1.1" xmlns:xlink="http://www.w3.org/1999/xlink" xmlns:svgjs="http://svgjs.com/svgjs" id="BgenPttrnSvgRootPreview" width="100%" height="100%"><defs><pattern x="0" y="0" width="1" height="1" patternUnits="userSpaceOnUse" id="BgenPttrnLayer1"><g id="PatternRootContent1"><g id="BgenPttrnLayer1background"><rect width="1" height="1" id="BgenPttrnBackground1" class="color_1 fill_color_1" fill="#111217"></rect></g></g></pattern><pattern x="0" y="0" width="36" height="64" patternUnits="userSpaceOnUse" id="BgenPttrnLayer2" patternTransform="matrix(1.2,0,0,1.2,0,0)"><g id="PatternRootContent2"><g id="BgenPttrnLayer2Element2"><use xlink:href="#BgenPttrnElement2" x="12.44744873046875" y="-36.397117614746094" transform="translate(36, -16) scale(1) translate(-36, 16) rotate(90, 36, -16)"></use><use xlink:href="#BgenPttrnElement2" x="-23.55255126953125" y="-36.397117614746094" transform="translate(0, -16) scale(1) translate(0, 16) rotate(90, 0, -16)"></use><use xlink:href="#BgenPttrnElement2" x="-5.55255126953125" y="-4.397117614746094" transform="translate(18, 16) scale(1) translate(-18, -16) rotate(90, 18, 16)"></use><use xlink:href="#BgenPttrnElement2" x="-41.55255126953125" y="-4.397117614746094" transform="translate(-18, 16) scale(1) translate(18, -16) rotate(90, -18, 16)"></use><use xlink:href="#BgenPttrnElement2" x="30.44744873046875" y="-4.397117614746094" transform="translate(54, 16) scale(1) translate(-54, -16) rotate(90, 54, 16)"></use><use xlink:href="#BgenPttrnElement2" x="12.44744873046875" y="27.602882385253906" transform="translate(36, 48) scale(1) translate(-36, -48) rotate(90, 36, 48)"></use><use xlink:href="#BgenPttrnElement2" x="-23.55255126953125" y="27.602882385253906" transform="translate(0, 48) scale(1) translate(0, -48) rotate(90, 0, 48)"></use><use xlink:href="#BgenPttrnElement2" x="-5.55255126953125" y="59.602882385253906" transform="translate(18, 80) scale(1) translate(-18, -80) rotate(90, 18, 80)"></use><use xlink:href="#BgenPttrnElement2" x="-5.55255126953125" y="59.602882385253906" transform="translate(18, 80) scale(1) translate(-18, -80) rotate(90, 18, 80)"></use></g></g></pattern><symbol id="BgenPttrnElement2"><g class="color_3 fill_color_3" fill="#2b3f7a"><path d="M28.553,11.308097839355469L23.553,16.30809783935547L23.553,13.308097839355469L19.553,13.308097839355469L19.553,9.308097839355469L23.553,9.308097839355469L23.553,6.308097839355469L28.553,11.308097839355469M32.553,15.808097839355469C32.553,16.188,32.343,16.518,32.023,16.68809700012207L24.123,21.128097534179688C23.963,21.248,23.763,21.308,23.553,21.30809783935547C23.343,21.308,23.143,21.248,22.983,21.128097534179688L15.083,16.68809700012207C14.763,16.518,14.553,16.188,14.553,15.808097839355469L14.553,6.808097839355469C14.553,6.428,14.763,6.098,15.083,5.928097724914551L22.983,1.488097906112671C23.143,1.368,23.343,1.308,23.553,1.3080978393554688C23.763,1.308,23.963,1.368,24.123,1.488097906112671L32.023,5.928097724914551C32.343,6.098,32.553,6.428,32.553,6.808097839355469L32.553,15.808097839355469M23.553,3.4580979347229004L16.553,7.398097991943359L16.553,15.218097686767578L23.553,19.158098220825195L30.553,15.218097686767578L30.553,7.398097991943359L23.553,3.4580979347229004Z" transform="matrix(1,0,0,1,0,0)"></path><path d="M31.445,33.63822555541992L29.615,26.8080997467041L32.213,28.3080997467041L34.213,24.843997955322266L37.677,26.843997955322266L35.677,30.3080997467041L38.275,31.8080997467041L31.445,33.63822555541992M25.548,34.852325439453125C25.219,34.662,25.038,34.315,25.051,33.95333480834961L25.155,24.891733169555664C25.132,24.693,25.18,24.49,25.285,24.3080997467041C25.39,24.126,25.542,23.983,25.725,23.904464721679688L33.521,19.28286361694336C33.828,19.091,34.219,19.074,34.548,19.263870239257812L42.342,23.763870239257812C42.671,23.954,42.852,24.301,42.839,24.662864685058594L42.734,33.724464416503906C42.758,33.923,42.71,34.126,42.605,34.30809783935547C42.5,34.49,42.348,34.633,42.164,34.71173095703125L34.369,39.33333206176758C34.062,39.525,33.671,39.542,33.342,39.35232925415039L25.548,34.852325439453125M40.743,33.23310089111328L40.831,25.2009220123291L34.059,21.290922164916992L27.147,25.383098602294922L27.059,33.41527557373047L33.831,37.32527542114258L40.743,33.23310089111328Z" transform="matrix(1,0,0,1,0,0)"></path><path d="M10.66,24.977970123291016L17.49,26.808095932006836L14.892,28.308095932006836L16.892,31.772197723388672L13.428,33.77219772338867L11.428,30.308095932006836L8.83,31.808095932006836L10.66,24.977970123291016M12.557,19.26386833190918C12.886,19.074,13.277,19.091,13.584,19.282861709594727L21.38,23.904462814331055C21.564,23.983,21.716,24.126,21.821,24.308095932006836C21.926,24.49,21.974,24.693,21.95,24.89173126220703L22.054,33.953330993652344C22.067,34.315,21.886,34.662,21.557,34.852325439453125L13.763,39.352325439453125C13.434,39.542,13.043,39.525,12.736,39.33333206176758L4.941,34.71173095703125C4.757,34.633,4.605,34.49,4.5,34.30809783935547C4.395,34.126,4.347,33.923,4.371,33.724464416503906L4.266,24.66286277770996C4.253,24.301,4.434,23.954,4.763,23.76386833190918L12.557,19.26386833190918M6.362,33.233097076416016L13.274,37.32527542114258L20.046,33.41527557373047L19.959,25.38309669494629L13.046,21.290918350219727L6.274,25.200918197631836L6.362,33.233097076416016Z" transform="matrix(1,0,0,1,0,0)"></path></g></symbol></defs><rect width="100%" height="100%" id="BgenPttrnRctLayer1" fill="url(#BgenPttrnLayer1)"></rect><rect width="100%" height="100%" id="BgenPttrnRctLayer2" fill="url(#BgenPttrnLayer2)"></rect></svg>